<?xml version="1.0" encoding="UTF-8"?>
<svg xmlns="http://www.w3.org/2000/svg" width="1900" height="1560" viewBox="0 0 1900 1560">
<defs>
<marker id="arrow" markerWidth="10" markerHeight="8" refX="9" refY="4" orient="auto" markerUnits="strokeWidth"><path d="M 0 0 L 10 4 L 0 8 z" fill="#5e6d84"/></marker>
<style><![CDATA[
    .bg { fill: #ffffff; }
    .section { fill: #fbfcff; stroke: #d7deea; stroke-width: 1.5; rx: 18; ry: 18; }
    .title { font: 700 20px sans-serif; fill: #0f1c33; }
    .node rect { stroke-width: 1.6; rx: 14; ry: 14; }
    .node text { font: 13px sans-serif; fill: #10233e; }
    .det rect { fill: #eef4ff; stroke: #345c9c; }
    .llm rect { fill: #fff7df; stroke: #b57a00; }
    .human rect { fill: #fdeef4; stroke: #b04f74; }
    .edge { stroke: #5e6d84; stroke-width: 1.5; fill: none; marker-end: url(#arrow); }
    .edge.dashed { stroke-dasharray: 6 5; }
    .elabel { font: 11px sans-serif; fill: #35445a; }
]]></style>
</defs>
<rect x="0" y="0" width="1900" height="1560" class="bg"/>
<text x="40" y="26" class="title">loop-structure.mmd schematic</text>
<rect x="20" y="20" width="1820" height="320" class="section"/>
<text x="38" y="48" class="title">入口ルーティング (ターン開始)</text>
<rect x="20" y="410" width="1820" height="570" class="section"/>
<text x="38" y="438" class="title">ループ本体 (1ターン内部)</text>
<rect x="20" y="1040" width="1820" height="170" class="section"/>
<text x="38" y="1068" class="title">決定論的境界 (hook)</text>
<rect x="20" y="1260" width="1820" height="270" class="section"/>
<text x="38" y="1288" class="title">スケジューラ (ターン間)</text>
<g class="node human">
<rect x="120" y="70" width="180" height="58" rx="14" ry="14"/>
<text x="210.0" y="93" text-anchor="middle" class=""><tspan x="210.0" dy="0">UserPromptSubmit</tspan></text>
</g>
<g class="node det">
<rect x="350" y="70" width="280" height="76" rx="14" ry="14"/>
<text x="490.0" y="93" text-anchor="middle" class=""><tspan x="490.0" dy="-16">strict leading prefix</tspan><tspan x="490.0" dy="16">precedence</tspan><tspan x="490.0" dy="16">direct: → frame-* → route: → &lt;header&gt; → gatekeeper</tspan></text>
</g>
<g class="node det">
<rect x="680" y="20" width="230" height="58" rx="14" ry="14"/>
<text x="795.0" y="43" text-anchor="middle" class=""><tspan x="795.0" dy="-16">DIRECT</tspan><tspan x="795.0" dy="16">bounded / gatekeeper-free</tspan><tspan x="795.0" dy="16">read-only by default</tspan></text>
</g>
<g class="node det">
<rect x="680" y="90" width="230" height="58" rx="14" ry="14"/>
<text x="795.0" y="113" text-anchor="middle" class=""><tspan x="795.0" dy="-8">FRAME</tspan><tspan x="795.0" dy="16">isolated frame skill</tspan></text>
</g>
<g class="node det">
<rect x="680" y="160" width="230" height="58" rx="14" ry="14"/>
<text x="795.0" y="183" text-anchor="middle" class=""><tspan x="795.0" dy="-16">COMMAND_ROUTE</tspan><tspan x="795.0" dy="16">frame shortlist proposal</tspan><tspan x="795.0" dy="16">stays outside loop</tspan></text>
</g>
<g class="node det">
<rect x="680" y="230" width="230" height="58" rx="14" ry="14"/>
<text x="795.0" y="253" text-anchor="middle" class=""><tspan x="795.0" dy="-8">SOP</tspan><tspan x="795.0" dy="16">isolated sop-&lt;header&gt; skill</tspan></text>
</g>
<g class="node human">
<rect x="1620" y="160" width="200" height="58" rx="14" ry="14"/>
<text x="1720.0" y="183" text-anchor="middle" class=""><tspan x="1720.0" dy="0">Human</tspan></text>
</g>
<g class="node llm">
<rect x="90" y="470" width="220" height="72" rx="14" ry="14"/>
<text x="200.0" y="493" text-anchor="middle" class=""><tspan x="200.0" dy="-8">gatekeeper</tspan><tspan x="200.0" dy="16">READY / NEEDS_INPUT / REJECT</tspan></text>
</g>
<g class="node llm">
<rect x="90" y="570" width="220" height="58" rx="14" ry="14"/>
<text x="200.0" y="593" text-anchor="middle" class=""><tspan x="200.0" dy="-8">loop-brief-assistant</tspan><tspan x="200.0" dy="16">clarify missing conditions</tspan></text>
</g>
<g class="node llm">
<rect x="90" y="650" width="220" height="58" rx="14" ry="14"/>
<text x="200.0" y="673" text-anchor="middle" class=""><tspan x="200.0" dy="-8">brief-pattern-curator</tspan><tspan x="200.0" dy="16">commit accepted patterns</tspan></text>
</g>
<g class="node llm">
<rect x="360" y="470" width="250" height="58" rx="14" ry="14"/>
<text x="485.0" y="493" text-anchor="middle" class=""><tspan x="485.0" dy="-8">sensemaker</tspan><tspan x="485.0" dy="16">progressive OKF LLMWiki retrieval</tspan></text>
</g>
<g class="node llm">
<rect x="360" y="560" width="250" height="58" rx="14" ry="14"/>
<text x="485.0" y="583" text-anchor="middle" class=""><tspan x="485.0" dy="-8">governor</tspan><tspan x="485.0" dy="16">policy / authority enforcement</tspan></text>
</g>
<g class="node llm">
<rect x="360" y="650" width="250" height="58" rx="14" ry="14"/>
<text x="485.0" y="673" text-anchor="middle" class=""><tspan x="485.0" dy="-8">integrator</tspan><tspan x="485.0" dy="16">compose parallel outputs</tspan></text>
</g>
<g class="node det">
<rect x="360" y="740" width="250" height="58" rx="14" ry="14"/>
<text x="485.0" y="763" text-anchor="middle" class=""><tspan x="485.0" dy="-8">deterministic validation</tspan><tspan x="485.0" dy="16">allowlist</tspan></text>
</g>
<g class="node llm">
<rect x="360" y="830" width="250" height="58" rx="14" ry="14"/>
<text x="485.0" y="853" text-anchor="middle" class=""><tspan x="485.0" dy="-8">state-steward</tspan><tspan x="485.0" dy="16">record state + memory proposals</tspan></text>
</g>
<g class="node llm">
<rect x="360" y="920" width="250" height="72" rx="14" ry="14"/>
<text x="485.0" y="943" text-anchor="middle" class=""><tspan x="485.0" dy="-8">meta-evaluator</tspan><tspan x="485.0" dy="16">PASS / REVISE / ESCALATE</tspan></text>
</g>
<g class="node llm">
<rect x="660" y="650" width="250" height="58" rx="14" ry="14"/>
<text x="785.0" y="673" text-anchor="middle" class=""><tspan x="785.0" dy="-8">memory-curator</tspan><tspan x="785.0" dy="16">okfctl transaction</tspan></text>
</g>
<g class="node det">
<rect x="660" y="740" width="250" height="58" rx="14" ry="14"/>
<text x="785.0" y="763" text-anchor="middle" class=""><tspan x="785.0" dy="0">LLMWiki</tspan></text>
</g>
<g class="node det">
<rect x="660" y="830" width="250" height="58" rx="14" ry="14"/>
<text x="785.0" y="853" text-anchor="middle" class=""><tspan x="785.0" dy="0">Learning Observer</tspan></text>
</g>
<g class="node llm">
<rect x="660" y="920" width="250" height="58" rx="14" ry="14"/>
<text x="785.0" y="943" text-anchor="middle" class=""><tspan x="785.0" dy="-8">learning-auditor</tspan><tspan x="785.0" dy="16">sop-learning-audit</tspan></text>
</g>
<g class="node llm">
<rect x="660" y="560" width="250" height="58" rx="14" ry="14"/>
<text x="785.0" y="583" text-anchor="middle" class=""><tspan x="785.0" dy="-8">watchdog-recovery</tspan><tspan x="785.0" dy="16">continue / rollback / escalate</tspan></text>
</g>
<g class="node det">
<rect x="90" y="1140" width="220" height="58" rx="14" ry="14"/>
<text x="200.0" y="1163" text-anchor="middle" class=""><tspan x="200.0" dy="-8">hook sanitize</tspan><tspan x="200.0" dy="16">journal / telemetry</tspan></text>
</g>
<g class="node det">
<rect x="360" y="1140" width="250" height="58" rx="14" ry="14"/>
<text x="485.0" y="1163" text-anchor="middle" class=""><tspan x="485.0" dy="-8">mutation gate</tspan><tspan x="485.0" dy="16">protected-path / permission</tspan></text>
</g>
<g class="node det">
<rect x="660" y="1140" width="220" height="58" rx="14" ry="14"/>
<text x="770.0" y="1163" text-anchor="middle" class=""><tspan x="770.0" dy="0">protected-path drift</tspan></text>
</g>
<g class="node det">
<rect x="940" y="1140" width="220" height="58" rx="14" ry="14"/>
<text x="1050.0" y="1163" text-anchor="middle" class=""><tspan x="1050.0" dy="-8">watchdog gate</tspan><tspan x="1050.0" dy="16">tool / failure budget</tspan></text>
</g>
<g class="node det">
<rect x="1200" y="1140" width="200" height="58" rx="14" ry="14"/>
<text x="1300.0" y="1163" text-anchor="middle" class=""><tspan x="1300.0" dy="0">okfctl transaction</tspan></text>
</g>
<g class="node det">
<rect x="90" y="1360" width="140" height="58" rx="14" ry="14"/>
<text x="160.0" y="1383" text-anchor="middle" class=""><tspan x="160.0" dy="0">PASS</tspan></text>
</g>
<g class="node det">
<rect x="260" y="1360" width="160" height="58" rx="14" ry="14"/>
<text x="340.0" y="1383" text-anchor="middle" class=""><tspan x="340.0" dy="0">REVISE</tspan></text>
</g>
<g class="node det">
<rect x="450" y="1360" width="170" height="58" rx="14" ry="14"/>
<text x="535.0" y="1383" text-anchor="middle" class=""><tspan x="535.0" dy="0">ESCALATE</tspan></text>
</g>
<g class="node det">
<rect x="650" y="1360" width="200" height="58" rx="14" ry="14"/>
<text x="750.0" y="1383" text-anchor="middle" class=""><tspan x="750.0" dy="0">GATE_EXHAUSTED</tspan></text>
</g>
<g class="node det">
<rect x="880" y="1360" width="210" height="58" rx="14" ry="14"/>
<text x="985.0" y="1383" text-anchor="middle" class=""><tspan x="985.0" dy="0">WATCHDOG_TRIPPED</tspan></text>
</g>
<g class="node det">
<rect x="1120" y="1360" width="200" height="58" rx="14" ry="14"/>
<text x="1220.0" y="1383" text-anchor="middle" class=""><tspan x="1220.0" dy="0">PROTECTED_DRIFT</tspan></text>
</g>
<g class="node det">
<rect x="1360" y="1360" width="250" height="58" rx="14" ry="14"/>
<text x="1485.0" y="1383" text-anchor="middle" class=""><tspan x="1485.0" dy="-16">next-turn.json</tspan><tspan x="1485.0" dy="16">gatekeeper-prompt.txt</tspan><tspan x="1485.0" dy="16">gatekeeper-prompt.json</tspan></text>
</g>
<g class="node det">
<rect x="1650" y="1360" width="210" height="72" rx="14" ry="14"/>
<text x="1755.0" y="1383" text-anchor="middle" class=""><tspan x="1755.0" dy="-8">daemon cadence gate</tspan><tspan x="1755.0" dy="16">immediate / manual / on-event / unknown</tspan></text>
</g>
<g class="node det">
<rect x="1650" y="1470" width="220" height="86" rx="14" ry="14"/>
<text x="1760.0" y="1493" text-anchor="middle" class=""><tspan x="1760.0" dy="-32">Legend</tspan><tspan x="1760.0" dy="16">det = hook / daemon / okfctl</tspan><tspan x="1760.0" dy="16">llm = ROLES-derived role</tspan><tspan x="1760.0" dy="16">human = human</tspan><tspan x="1760.0" dy="16">loop = autonomous loop</tspan></text>
</g>
<path d="M 210.0 70.0 L 490.0 146.0" class="edge"/>
<path d="M 490.0 70.0 L 795.0 78.0" class="edge"/><text x="642.5" y="68.0" text-anchor="middle" class="elabel">direct:</text>
<path d="M 490.0 70.0 L 795.0 148.0" class="edge"/><text x="642.5" y="103.0" text-anchor="middle" class="elabel">frame-*:</text>
<path d="M 490.0 146.0 L 795.0 160.0" class="edge"/><text x="642.5" y="147.0" text-anchor="middle" class="elabel">route:</text>
<path d="M 490.0 146.0 L 795.0 230.0" class="edge"/><text x="642.5" y="182.0" text-anchor="middle" class="elabel">other &lt;header&gt;:</text>
<path d="M 490.0 146.0 L 200.0 470.0" class="edge"/><text x="345.0" y="302.0" text-anchor="middle" class="elabel">no prefix</text>
<path d="M 795.0 78.0 L 1720.0 160.0" class="edge"/>
<path d="M 795.0 148.0 L 1720.0 160.0" class="edge"/>
<path d="M 795.0 160.0 L 795.0 148.0" class="edge"/><text x="795.0" y="148.0" text-anchor="middle" class="elabel">selected frame</text>
<path d="M 795.0 160.0 L 1720.0 218.0" class="edge"/><text x="1257.5" y="183.0" text-anchor="middle" class="elabel">needs_user_turn</text>
<path d="M 795.0 288.0 L 785.0 920.0" class="edge"/><text x="790.0" y="598.0" text-anchor="middle" class="elabel">learning-audit:</text>
<path d="M 795.0 230.0 L 1720.0 218.0" class="edge"/><text x="1257.5" y="218.0" text-anchor="middle" class="elabel">other sop-&lt;header&gt;</text>
<path d="M 1720.0 218.0 L 200.0 470.0" class="edge dashed"/><text x="960.0" y="338.0" text-anchor="middle" class="elabel">continuation ≤ max_stop_continuations</text>
<path d="M 1720.0 218.0 L 750.0 1360.0" class="edge"/><text x="1235.0" y="783.0" text-anchor="middle" class="elabel">continuation &gt; max_stop_continuations</text>
<path d="M 200.0 542.0 L 200.0 570.0" class="edge"/><text x="200.0" y="550.0" text-anchor="middle" class="elabel">NEEDS_INPUT</text>
<path d="M 200.0 542.0 L 200.0 650.0" class="edge"/><text x="200.0" y="590.0" text-anchor="middle" class="elabel">READY + PATTERN_CAPTURE</text>
<path d="M 200.0 470.0 L 485.0 528.0" class="edge"/><text x="342.5" y="493.0" text-anchor="middle" class="elabel">READY</text>
<path d="M 200.0 542.0 L 535.0 1360.0" class="edge"/><text x="367.5" y="945.0" text-anchor="middle" class="elabel">REJECT</text>
<path d="M 200.0 570.0 L 1720.0 218.0" class="edge"/><text x="960.0" y="388.0" text-anchor="middle" class="elabel">questions_to_user</text>
<path d="M 200.0 650.0 L 200.0 542.0" class="edge dashed"/><text x="200.0" y="590.0" text-anchor="middle" class="elabel">continuation ≤ max_stop_continuations</text>
<path d="M 485.0 528.0 L 785.0 740.0" class="edge dashed"/><text x="635.0" y="628.0" text-anchor="middle" class="elabel">selected prior knowledge</text>
<path d="M 785.0 740.0 L 485.0 528.0" class="edge dashed"/><text x="635.0" y="628.0" text-anchor="middle" class="elabel">selected prior knowledge</text>
<path d="M 485.0 528.0 L 485.0 560.0" class="edge"/>
<path d="M 485.0 618.0 L 485.0 1140.0" class="edge"/>
<path d="M 485.0 618.0 L 535.0 1360.0" class="edge"/><text x="510.0" y="983.0" text-anchor="middle" class="elabel">denied</text>
<path d="M 485.0 1140.0 L 485.0 708.0" class="edge"/>
<path d="M 485.0 1140.0 L 770.0 1198.0" class="edge dashed"/><text x="627.5" y="1163.0" text-anchor="middle" class="elabel">protected-path drift</text>
<path d="M 770.0 1198.0 L 1220.0 1360.0" class="edge"/>
<path d="M 485.0 708.0 L 485.0 740.0" class="edge"/>
<path d="M 485.0 708.0 L 1050.0 1140.0" class="edge dashed"/><text x="767.5" y="918.0" text-anchor="middle" class="elabel">tool events / failure budget</text>
<path d="M 485.0 798.0 L 485.0 830.0" class="edge"/>
<path d="M 485.0 798.0 L 1050.0 1140.0" class="edge dashed"/><text x="767.5" y="963.0" text-anchor="middle" class="elabel">tool events / failure budget</text>
<path d="M 1050.0 1140.0 L 785.0 618.0" class="edge"/><text x="917.5" y="873.0" text-anchor="middle" class="elabel">tripped</text>
<path d="M 485.0 888.0 L 200.0 1140.0" class="edge dashed"/><text x="342.5" y="1008.0" text-anchor="middle" class="elabel">sanitized journal / telemetry</text>
<path d="M 485.0 992.0 L 200.0 1140.0" class="edge dashed"/><text x="342.5" y="1060.0" text-anchor="middle" class="elabel">sanitized journal / telemetry</text>
<path d="M 785.0 708.0 L 200.0 1140.0" class="edge dashed"/><text x="492.5" y="918.0" text-anchor="middle" class="elabel">sanitized journal / telemetry</text>
<path d="M 785.0 978.0 L 200.0 1140.0" class="edge dashed"/><text x="492.5" y="1053.0" text-anchor="middle" class="elabel">sanitized journal / telemetry</text>
<path d="M 200.0 542.0 L 200.0 1140.0" class="edge dashed"/><text x="200.0" y="835.0" text-anchor="middle" class="elabel">sanitized journal / telemetry</text>
<path d="M 485.0 888.0 L 485.0 920.0" class="edge"/>
<path d="M 485.0 992.0 L 160.0 1360.0" class="edge"/><text x="322.5" y="1170.0" text-anchor="middle" class="elabel">PASS</text>
<path d="M 485.0 992.0 L 340.0 1360.0" class="edge"/><text x="412.5" y="1170.0" text-anchor="middle" class="elabel">REVISE</text>
<path d="M 485.0 992.0 L 535.0 1360.0" class="edge"/><text x="510.0" y="1170.0" text-anchor="middle" class="elabel">ESCALATE</text>
<path d="M 160.0 1360.0 L 785.0 708.0" class="edge"/><text x="472.5" y="1028.0" text-anchor="middle" class="elabel">accepted memory proposals</text>
<path d="M 160.0 1360.0 L 785.0 888.0" class="edge"/><text x="472.5" y="1118.0" text-anchor="middle" class="elabel">no durable memory</text>
<path d="M 785.0 708.0 L 1300.0 1140.0" class="edge"/>
<path d="M 1300.0 1140.0 L 785.0 798.0" class="edge"/>
<path d="M 1300.0 1140.0 L 785.0 888.0" class="edge"/>
<path d="M 785.0 618.0 L 340.0 1360.0" class="edge"/><text x="562.5" y="983.0" text-anchor="middle" class="elabel">continue with changed approach</text>
<path d="M 785.0 618.0 L 535.0 1360.0" class="edge"/><text x="660.0" y="983.0" text-anchor="middle" class="elabel">rollback</text>
<path d="M 785.0 618.0 L 535.0 1360.0" class="edge"/><text x="660.0" y="983.0" text-anchor="middle" class="elabel">escalate</text>
<path d="M 785.0 618.0 L 985.0 1360.0" class="edge"/>
<path d="M 340.0 1360.0 L 485.0 708.0" class="edge dashed"/><text x="412.5" y="1028.0" text-anchor="middle" class="elabel">continuation ≤ max_stop_continuations</text>
<path d="M 785.0 888.0 L 785.0 920.0" class="edge dashed"/><text x="785.0" y="898.0" text-anchor="middle" class="elabel">learning-audit:</text>
<path d="M 785.0 920.0 L 1485.0 1360.0" class="edge"/>
<path d="M 785.0 888.0 L 1485.0 1360.0" class="edge"/>
<path d="M 160.0 1360.0 L 1485.0 1418.0" class="edge"/>
<path d="M 340.0 1360.0 L 1485.0 1418.0" class="edge"/>
<path d="M 535.0 1360.0 L 1485.0 1418.0" class="edge"/>
<path d="M 750.0 1360.0 L 1485.0 1418.0" class="edge"/>
<path d="M 985.0 1360.0 L 1485.0 1418.0" class="edge"/>
<path d="M 1220.0 1360.0 L 1485.0 1418.0" class="edge"/>
<path d="M 1485.0 1360.0 L 1755.0 1432.0" class="edge"/><text x="1620.0" y="1390.0" text-anchor="middle" class="elabel">ready_for_next_turn = true</text>
<path d="M 1485.0 1360.0 L 1720.0 218.0" class="edge"/><text x="1602.5" y="783.0" text-anchor="middle" class="elabel">ready_for_next_turn = false / notification_command</text>
<path d="M 1755.0 1360.0 L 210.0 128.0" class="edge"/><text x="982.5" y="738.0" text-anchor="middle" class="elabel">immediate</text>
<path d="M 1755.0 1360.0 L 1720.0 218.0" class="edge"/><text x="1737.5" y="783.0" text-anchor="middle" class="elabel">manual / on-event / unknown = skip</text>
<path d="M 1760.0 1470.0 L 795.0 78.0" class="edge dashed"/><text x="1277.5" y="763.0" text-anchor="middle" class="elabel">legend sample</text>
<path d="M 1760.0 1470.0 L 200.0 542.0" class="edge dashed"/><text x="980.0" y="1001.0" text-anchor="middle" class="elabel">legend sample</text>
<path d="M 1760.0 1470.0 L 1720.0 218.0" class="edge dashed"/><text x="1740.0" y="839.0" text-anchor="middle" class="elabel">legend sample</text>
</svg>
